<?xml version="1.0" encoding="UTF-8"?>
<svg xmlns="http://www.w3.org/2000/svg" xmlns:xlink="http://www.w3.org/1999/xlink" width="24px" height="24px" viewBox="0 0 24 24" version="1.1">
<g id="surface1">
<path style=" stroke:none;fill-rule:nonzero;fill:rgb(0%,0%,0%);fill-opacity:0.501961;" d="M 15.75 1.5 L 14.121094 1.5 C 13.8125 0.628906 12.976562 0 12 0 C 11.023438 0 10.1875 0.628906 9.878906 1.5 L 8.25 1.5 C 7.835938 1.5 7.5 1.835938 7.5 2.25 L 7.5 5.25 C 7.5 5.664062 7.835938 6 8.25 6 L 15.75 6 C 16.164062 6 16.5 5.664062 16.5 5.25 L 16.5 2.25 C 16.5 1.835938 16.164062 1.5 15.75 1.5 Z M 15.75 1.5 "/>
<path style=" stroke:none;fill-rule:nonzero;fill:rgb(0%,0%,0%);fill-opacity:0.501961;" d="M 19.5 3 L 18 3 L 18 5.25 C 18 6.492188 16.992188 7.5 15.75 7.5 L 8.25 7.5 C 7.007812 7.5 6 6.492188 6 5.25 L 6 3 L 4.5 3 C 3.675781 3 3 3.671875 3 4.5 L 3 22.5 C 3 23.339844 3.660156 24 4.5 24 L 19.5 24 C 20.339844 24 21 23.339844 21 22.5 L 21 4.5 C 21 3.660156 20.339844 3 19.5 3 Z M 11.78125 16.28125 L 8.78125 19.28125 C 8.632812 19.429688 8.441406 19.5 8.25 19.5 C 8.058594 19.5 7.867188 19.429688 7.71875 19.28125 L 6.21875 17.78125 C 5.925781 17.488281 5.925781 17.011719 6.21875 16.722656 C 6.511719 16.429688 6.988281 16.429688 7.277344 16.722656 L 8.25 17.691406 L 10.71875 15.222656 C 11.011719 14.929688 11.488281 14.929688 11.777344 15.222656 C 12.070312 15.511719 12.074219 15.988281 11.78125 16.28125 Z M 11.78125 10.28125 L 8.78125 13.28125 C 8.632812 13.429688 8.441406 13.5 8.25 13.5 C 8.058594 13.5 7.867188 13.429688 7.71875 13.28125 L 6.21875 11.78125 C 5.925781 11.488281 5.925781 11.011719 6.21875 10.71875 C 6.511719 10.429688 6.988281 10.429688 7.277344 10.71875 L 8.25 11.691406 L 10.71875 9.21875 C 11.011719 8.929688 11.488281 8.929688 11.777344 9.21875 C 12.070312 9.511719 12.074219 9.988281 11.78125 10.28125 Z M 17.25 18 L 14.25 18 C 13.835938 18 13.5 17.664062 13.5 17.25 C 13.5 16.835938 13.835938 16.5 14.25 16.5 L 17.25 16.5 C 17.664062 16.5 18 16.835938 18 17.25 C 18 17.664062 17.664062 18 17.25 18 Z M 17.25 12 L 14.25 12 C 13.835938 12 13.5 11.664062 13.5 11.25 C 13.5 10.835938 13.835938 10.5 14.25 10.5 L 17.25 10.5 C 17.664062 10.5 18 10.835938 18 11.25 C 18 11.664062 17.664062 12 17.25 12 Z M 17.25 12 "/>
</g>
</svg>
