<svg width="14" height="24" viewBox="0 0 14 24" fill="none" xmlns="http://www.w3.org/2000/svg" xmlns:xlink="http://www.w3.org/1999/xlink">
<path d="M9.586,23.414C10.367,24.195 11.633,24.195 12.414,23.414C13.195,22.633 13.195,21.367 12.414,20.586L9.586,23.414ZM1,12L-0.414,10.586C-1.195,11.367 -1.195,12.633 -0.414,13.414L1,12ZM12.414,3.414C13.195,2.633 13.195,1.367 12.414,0.586C11.633,-0.195 10.367,-0.195 9.586,0.586L12.414,3.414ZM12.414,20.586L2.414,10.586L-0.414,13.414L9.586,23.414L12.414,20.586ZM2.414,13.414L12.414,3.414L9.586,0.586L-0.414,10.586L2.414,13.414Z" fill="#000000"/>
</svg>
