<?xml version="1.0" encoding="UTF-8"?>
<svg xmlns="http://www.w3.org/2000/svg" xmlns:xlink="http://www.w3.org/1999/xlink" width="30px" height="30px" viewBox="0 0 30 30" version="1.1">
<g id="surface1">
<path style=" stroke:none;fill-rule:nonzero;fill:rgb(0%,0%,0%);fill-opacity:0.501961;" d="M 19.6875 1.875 L 17.652344 1.875 C 17.265625 0.785156 16.222656 0 15 0 C 13.777344 0 12.734375 0.785156 12.347656 1.875 L 10.3125 1.875 C 9.796875 1.875 9.375 2.296875 9.375 2.8125 L 9.375 6.5625 C 9.375 7.078125 9.796875 7.5 10.3125 7.5 L 19.6875 7.5 C 20.203125 7.5 20.625 7.078125 20.625 6.5625 L 20.625 2.8125 C 20.625 2.296875 20.203125 1.875 19.6875 1.875 Z M 19.6875 1.875 "/>
<path style=" stroke:none;fill-rule:nonzero;fill:rgb(0%,0%,0%);fill-opacity:0.501961;" d="M 24.375 3.75 L 22.5 3.75 L 22.5 6.5625 C 22.5 8.113281 21.238281 9.375 19.6875 9.375 L 10.3125 9.375 C 8.761719 9.375 7.5 8.113281 7.5 6.5625 L 7.5 3.75 L 5.625 3.75 C 4.59375 3.75 3.75 4.589844 3.75 5.625 L 3.75 28.125 C 3.75 29.175781 4.574219 30 5.625 30 L 24.375 30 C 25.425781 30 26.25 29.175781 26.25 28.125 L 26.25 5.625 C 26.25 4.574219 25.425781 3.75 24.375 3.75 Z M 14.726562 20.351562 L 10.976562 24.101562 C 10.792969 24.285156 10.550781 24.375 10.3125 24.375 C 10.074219 24.375 9.832031 24.285156 9.648438 24.101562 L 7.773438 22.226562 C 7.40625 21.859375 7.40625 21.265625 7.773438 20.902344 C 8.140625 20.535156 8.734375 20.535156 9.097656 20.902344 L 10.3125 22.113281 L 13.398438 19.027344 C 13.765625 18.660156 14.359375 18.660156 14.722656 19.027344 C 15.089844 19.390625 15.09375 19.984375 14.726562 20.351562 Z M 14.726562 12.851562 L 10.976562 16.601562 C 10.792969 16.785156 10.550781 16.875 10.3125 16.875 C 10.074219 16.875 9.832031 16.785156 9.648438 16.601562 L 7.773438 14.726562 C 7.40625 14.359375 7.40625 13.765625 7.773438 13.398438 C 8.140625 13.035156 8.734375 13.035156 9.097656 13.398438 L 10.3125 14.613281 L 13.398438 11.523438 C 13.765625 11.160156 14.359375 11.160156 14.722656 11.523438 C 15.089844 11.890625 15.09375 12.484375 14.726562 12.851562 Z M 21.5625 22.5 L 17.8125 22.5 C 17.296875 22.5 16.875 22.078125 16.875 21.5625 C 16.875 21.046875 17.296875 20.625 17.8125 20.625 L 21.5625 20.625 C 22.078125 20.625 22.5 21.046875 22.5 21.5625 C 22.5 22.078125 22.078125 22.5 21.5625 22.5 Z M 21.5625 15 L 17.8125 15 C 17.296875 15 16.875 14.578125 16.875 14.0625 C 16.875 13.546875 17.296875 13.125 17.8125 13.125 L 21.5625 13.125 C 22.078125 13.125 22.5 13.546875 22.5 14.0625 C 22.5 14.578125 22.078125 15 21.5625 15 Z M 21.5625 15 "/>
</g>
</svg>
